<svg width="24" height="24" viewBox="0 0 24 24" fill="none" xmlns="http://www.w3.org/2000/svg">
<path d="M21.4286 5.14291H18V3.00005C18 2.05452 17.2313 1.28577 16.2857 1.28577H7.71429C6.76875 1.28577 6 2.05452 6 3.00005V5.14291H2.57143C2.09732 5.14291 1.71429 5.52595 1.71429 6.00005V6.8572C1.71429 6.97505 1.81072 7.07148 1.92857 7.07148H3.54643L4.20804 21.0804C4.25089 21.9938 5.00625 22.7143 5.91964 22.7143H18.0804C18.9964 22.7143 19.7491 21.9965 19.792 21.0804L20.4536 7.07148H22.0714C22.1893 7.07148 22.2857 6.97505 22.2857 6.8572V6.00005C22.2857 5.52595 21.9027 5.14291 21.4286 5.14291ZM16.0714 5.14291H7.92857V3.21434H16.0714V5.14291Z" fill="#FFDD4A"/>
</svg>
