<svg width="51" height="51" viewBox="0 0 51 51" fill="none" xmlns="http://www.w3.org/2000/svg">
<path d="M33.4565 6.62646H2.20654V33.7098H33.4565V6.62646Z" stroke="#FFDD4A" stroke-width="2" stroke-linecap="round" stroke-linejoin="round"/>
<path d="M33.4565 17.043H41.7899L48.0399 23.293V33.7096H33.4565V17.043Z" stroke="#FFDD4A" stroke-width="2" stroke-linecap="round" stroke-linejoin="round"/>
<path d="M11.5814 44.1266C14.4579 44.1266 16.7897 41.7948 16.7897 38.9183C16.7897 36.0418 14.4579 33.71 11.5814 33.71C8.7049 33.71 6.37305 36.0418 6.37305 38.9183C6.37305 41.7948 8.7049 44.1266 11.5814 44.1266Z" stroke="#FFDD4A" stroke-width="2" stroke-linecap="round" stroke-linejoin="round"/>
<path d="M38.6649 44.1266C41.5414 44.1266 43.8732 41.7948 43.8732 38.9183C43.8732 36.0418 41.5414 33.71 38.6649 33.71C35.7884 33.71 33.4565 36.0418 33.4565 38.9183C33.4565 41.7948 35.7884 44.1266 38.6649 44.1266Z" stroke="#FFDD4A" stroke-width="2" stroke-linecap="round" stroke-linejoin="round"/>
</svg>
