<svg width="21" height="19" viewBox="0 0 21 19" fill="none" xmlns="http://www.w3.org/2000/svg">
<path d="M9.84911 13.4196C9.86915 13.4453 9.89476 13.466 9.924 13.4802C9.95324 13.4945 9.98533 13.5019 10.0179 13.5019C10.0504 13.5019 10.0825 13.4945 10.1117 13.4802C10.141 13.466 10.1666 13.4453 10.1866 13.4196L13.1866 9.62411C13.2964 9.48482 13.1973 9.27857 13.0179 9.27857H11.033V0.214286C11.033 0.0964286 10.9366 0 10.8188 0H9.21161C9.09375 0 8.99732 0.0964286 8.99732 0.214286V9.27589H7.01786C6.83839 9.27589 6.73929 9.48214 6.84911 9.62143L9.84911 13.4196ZM19.8214 12.4821H18.2143C18.0964 12.4821 18 12.5786 18 12.6964V16.8214H2.03571V12.6964C2.03571 12.5786 1.93929 12.4821 1.82143 12.4821H0.214286C0.0964286 12.4821 0 12.5786 0 12.6964V18C0 18.4741 0.383036 18.8571 0.857143 18.8571H19.1786C19.6527 18.8571 20.0357 18.4741 20.0357 18V12.6964C20.0357 12.5786 19.9393 12.4821 19.8214 12.4821Z" fill="#FFDD4A"/>
</svg>
