<svg width="24" height="24" viewBox="0 0 24 24" fill="none" xmlns="http://www.w3.org/2000/svg">
<path d="M21.8571 20.6786H2.14285C1.66874 20.6786 1.28571 21.0617 1.28571 21.5358V22.5001C1.28571 22.6179 1.38213 22.7143 1.49999 22.7143H22.5C22.6178 22.7143 22.7143 22.6179 22.7143 22.5001V21.5358C22.7143 21.0617 22.3312 20.6786 21.8571 20.6786ZM5.18838 18.4286C5.24196 18.4286 5.29553 18.4233 5.3491 18.4152L9.85446 17.6251C9.90803 17.6143 9.95892 17.5902 9.99642 17.5501L21.3509 6.19559C21.3757 6.17081 21.3954 6.14137 21.4089 6.10897C21.4223 6.07657 21.4292 6.04183 21.4292 6.00675C21.4292 5.97167 21.4223 5.93693 21.4089 5.90453C21.3954 5.87212 21.3757 5.84269 21.3509 5.81791L16.8991 1.36345C16.8482 1.31255 16.7812 1.28577 16.7089 1.28577C16.6366 1.28577 16.5696 1.31255 16.5187 1.36345L5.16428 12.7179C5.1241 12.7581 5.09999 12.8063 5.08928 12.8599L4.2991 17.3652C4.27304 17.5087 4.28235 17.6564 4.32622 17.7955C4.3701 17.9346 4.44721 18.0609 4.55088 18.1634C4.72767 18.3349 4.94999 18.4286 5.18838 18.4286Z" fill="#FFDD4A"/>
</svg>
