<svg width="24" height="24" viewBox="0 0 24 24" fill="none" xmlns="http://www.w3.org/2000/svg">
<path d="M22.6501 21.174L15.6938 14.2178C16.7733 12.8223 17.3572 11.116 17.3572 9.32136C17.3572 7.17314 16.5188 5.15886 15.0027 3.64011C13.4867 2.12136 11.467 1.28564 9.32148 1.28564C7.17595 1.28564 5.1563 2.12404 3.64023 3.64011C2.12148 5.15618 1.28577 7.17314 1.28577 9.32136C1.28577 11.4669 2.12416 13.4865 3.64023 15.0026C5.1563 16.5214 7.17327 17.3571 9.32148 17.3571C11.1161 17.3571 12.8197 16.7731 14.2152 15.6964L21.1715 22.6499C21.1919 22.6703 21.2161 22.6865 21.2428 22.6976C21.2694 22.7086 21.298 22.7143 21.3268 22.7143C21.3557 22.7143 21.3843 22.7086 21.4109 22.6976C21.4376 22.6865 21.4618 22.6703 21.4822 22.6499L22.6501 21.4848C22.6705 21.4644 22.6867 21.4401 22.6977 21.4135C22.7087 21.3868 22.7144 21.3582 22.7144 21.3294C22.7144 21.3005 22.7087 21.272 22.6977 21.2453C22.6867 21.2187 22.6705 21.1944 22.6501 21.174ZM13.5643 13.5642C12.4286 14.6973 10.9233 15.3214 9.32148 15.3214C7.7197 15.3214 6.21434 14.6973 5.07862 13.5642C3.94559 12.4285 3.32148 10.9231 3.32148 9.32136C3.32148 7.71957 3.94559 6.21154 5.07862 5.0785C6.21434 3.94547 7.7197 3.32136 9.32148 3.32136C10.9233 3.32136 12.4313 3.94279 13.5643 5.0785C14.6974 6.21422 15.3215 7.71957 15.3215 9.32136C15.3215 10.9231 14.6974 12.4312 13.5643 13.5642Z" fill="#B9B9B9"/>
</svg>
