<svg width="24" height="24" viewBox="0 0 24 24" fill="none" xmlns="http://www.w3.org/2000/svg">
<path d="M21.8571 1.28564H2.14279C1.66868 1.28564 1.28564 1.66868 1.28564 2.14279V21.8571C1.28564 22.3312 1.66868 22.7142 2.14279 22.7142H11.7856C11.9035 22.7142 11.9999 22.6178 11.9999 22.4999V20.9999C11.9999 20.8821 11.9035 20.7856 11.7856 20.7856H3.21422V3.21422H20.7856V11.7856C20.7856 11.9035 20.8821 11.9999 20.9999 11.9999H22.4999C22.6178 11.9999 22.7142 11.9035 22.7142 11.7856V2.14279C22.7142 1.66868 22.3312 1.28564 21.8571 1.28564ZM15.7848 14.341L17.183 12.9428C17.2113 12.9143 17.2311 12.8785 17.24 12.8393C17.249 12.8002 17.2468 12.7593 17.2337 12.7214C17.2205 12.6834 17.197 12.6499 17.1658 12.6247C17.1346 12.5994 17.0969 12.5834 17.0571 12.5785L12.2517 12.016C12.1151 11.9999 11.9973 12.1151 12.0133 12.2544L12.5758 17.0598C12.5973 17.2365 12.8142 17.3115 12.9401 17.1856L14.3437 15.7821L21.2062 22.6446C21.2892 22.7276 21.4258 22.7276 21.5089 22.6446L22.6446 21.5089C22.7276 21.4258 22.7276 21.2892 22.6446 21.2062L15.7848 14.341Z" fill="#FFDD4A"/>
</svg>
